<svg xmlns="http://www.w3.org/2000/svg" viewBox="0 0 179.96 72.56"><defs><style>.cls-1{fill:#303030;}.cls-2{fill:#231f20;}</style></defs><title>mo stache</title><g id="Layer_2" data-name="Layer 2"><g id="Layer_1-2" data-name="Layer 1"><path class="cls-1" d="M118,70.06a72.63,72.63,0,0,1-22.63-3.55A32.66,32.66,0,0,1,90,64.28a33,33,0,0,1-5.49,2.26A72.56,72.56,0,0,1,62,70.06c-14,0-26.3-4-36.68-11.77C10,46.79,4.49,31,2.56,22.63a2.49,2.49,0,0,1,1-2.63A2.45,2.45,0,0,1,5,19.57,2.51,2.51,0,0,1,6.45,20c6.6,4.69,12.67,7.06,18,7.06A17.48,17.48,0,0,0,28,26.74c5.71-1.2,9.72-5.07,14.36-9.55C48,11.83,54.25,5.76,64.8,3.42a39.36,39.36,0,0,1,8.49-.92c.6,0,1.15,0,1.63,0A32.84,32.84,0,0,1,90,6.23,32.81,32.81,0,0,1,105,2.53c.47,0,1,0,1.63,0a39.43,39.43,0,0,1,8.49.92C125.7,5.76,132,11.83,137.55,17.19c4.64,4.48,8.65,8.35,14.36,9.55a17.55,17.55,0,0,0,3.56.36c5.36,0,11.43-2.37,18-7.06a2.48,2.48,0,0,1,1.44-.47,2.43,2.43,0,0,1,1.39.43,2.49,2.49,0,0,1,1,2.63C175.47,31,170,46.79,154.68,58.29,144.31,66.1,132,70.06,118,70.06Z"/><path class="cls-2" d="M106.67,5a37.2,37.2,0,0,1,8,.86c18.44,4.09,23,20.44,36.78,23.33a20.42,20.42,0,0,0,4.07.41c4.75,0,11.17-1.62,19.48-7.53-1.22,5.33-5.81,22.21-21.77,34.23C141.42,65.15,128.55,67.56,118,67.56a70.18,70.18,0,0,1-21.8-3.41A30.34,30.34,0,0,1,90,61.42a30.42,30.42,0,0,1-6.23,2.73A70.18,70.18,0,0,1,62,67.56c-10.54,0-23.42-2.41-35.17-11.26C10.81,44.28,6.22,27.4,5,22.07,13.32,28,19.73,29.6,24.48,29.6a20.53,20.53,0,0,0,4.08-.41C42.33,26.3,46.9,10,65.34,5.86A37.12,37.12,0,0,1,73.28,5c.59,0,1.13,0,1.59,0A30,30,0,0,1,90,9.09,30,30,0,0,1,105.09,5c.46,0,1,0,1.58,0M175,22.07h0M106.67,0h0L105,0A35.28,35.28,0,0,0,90,3.44,35.36,35.36,0,0,0,75,0c-.56,0-1.13,0-1.69,0a41.75,41.75,0,0,0-9,1C53,3.47,46.46,9.8,40.67,15.4c-4.37,4.21-8.13,7.84-13.14,8.89a14.68,14.68,0,0,1-3.05.31c-4.83,0-10.41-2.22-16.59-6.6A5,5,0,0,0,5,17.07,5,5,0,0,0,.13,23.19c2,8.71,7.73,25.12,23.64,37.1C34.58,68.43,47.43,72.56,62,72.56A75.25,75.25,0,0,0,85.31,68.9,35,35,0,0,0,90,67.07a34.38,34.38,0,0,0,4.66,1.83A75.25,75.25,0,0,0,118,72.56c14.52,0,27.37-4.13,38.18-12.27,15.8-11.89,21.56-28.15,23.6-36.91a4.66,4.66,0,0,0,.18-1.31,5,5,0,0,0-5-5h0A5,5,0,0,0,172,18c-6.15,4.36-11.72,6.57-16.54,6.57a14.68,14.68,0,0,1-3.05-.31c-5-1.05-8.77-4.68-13.13-8.89C133.49,9.8,126.93,3.47,115.7,1a41.91,41.91,0,0,0-9-1Z"/></g></g></svg>